# xmcd
# Track frame offsets:
# 150
# 15075
# 50398
# 62401
# 75527
# 86116
# 98622
# 110656
# 123287
# 148833
# 162264
# 175297
# 190179
#
# Disc length: 2624 seconds
# Revision: 0
# Processed by: cddbd v1.5.2PL0 Copyright (c) Steve Scherf et al.
# Submitted via: VisiTrax 2.11.2.271 - For more info visit www.synapsa.com
#
DISCID=9e0a3e0d
DTITLE=Slim Dusty - Me And My Guitar
DYEAR=1972
DGENRE=Australian Country
TTITLE0=Ramblin' Shoes
TTITLE1=The Man From Snowy River
TTITLE2=Second Class, Wait Here
TTITLE3=That Was Years Ago
TTITLE4=She Wasn't There To Meet Me
TTITLE5=Mackenzie Country
TTITLE6=Boots Of Many Colours
TTITLE7=Anthill Style
TTITLE8=Peter Anderson and Co.
TTITLE9=Do You Think That I Do Not Know
TTITLE10=Roughriders
TTITLE11=The Birdsville Track
TTITLE12=Drought
EXTD=1996 EMI Music Australia
EXTT0=
EXTT1=
EXTT2=
EXTT3=
EXTT4=
EXTT5=
EXTT6=
EXTT7=
EXTT8=
EXTT9=
EXTT10=
EXTT11=
EXTT12=
PLAYORDER=
